<svg xmlns="http://www.w3.org/2000/svg" viewBox="0 0 200 200">

  <circle cx="100" cy="100" r="100" fill="#0d1220"/>
  <circle cx="100" cy="100" r="96" fill="none" stroke="url(#ring)" stroke-width="2.5"/>
  <defs>
    <linearGradient id="ring" x1="0%" y1="0%" x2="100%" y2="100%">
      <stop offset="0%" stop-color="#6ee7b7"/>
      <stop offset="50%" stop-color="#818cf8"/>
      <stop offset="100%" stop-color="#6ee7b7"/>
    </linearGradient>
  </defs>

  <path d="M57 92 Q42 130 44 168 Q50 150 54 130 Q57 112 60 94 Z" fill="#1c0802"/>
  <path d="M143 92 Q158 130 156 168 Q150 150 146 130 Q143 112 140 94 Z" fill="#1c0802"/>
  <path d="M62 96 Q64 175 100 178 Q136 175 138 96 Q118 106 100 105 Q82 106 62 96 Z" fill="#220e04"/>

  <path d="M56 178 Q56 158 100 154 Q144 158 144 178 L144 200 L56 200 Z" fill="#1e1b4b"/>
  <path d="M82 158 Q100 168 118 158 L115 154 Q100 163 85 154 Z" fill="#312e81"/>

  <rect x="89" y="136" width="22" height="20" rx="9" fill="#f2c4a0"/>
  <ellipse cx="100" cy="110" rx="41" ry="43" fill="#f2c4a0"/>

  <path d="M59 96 Q60 62 100 57 Q140 62 141 96 Q130 72 100 70 Q70 72 59 96 Z" fill="#1c0802"/>
  <ellipse cx="100" cy="68" rx="39" ry="14" fill="#1c0802"/>
  <path d="M59 96 Q53 114 55 134 Q59 118 62 104 Q63 99 65 95 Z" fill="#1c0802"/>
  <path d="M141 96 Q147 114 145 134 Q141 118 138 104 Q137 99 135 95 Z" fill="#1c0802"/>
  <path d="M100 57 Q96 68 95 84" stroke="#321206" stroke-width="2" fill="none" stroke-linecap="round"/>
  <path d="M85 62 Q80 73 79 88" stroke="#321206" stroke-width="1.5" fill="none" stroke-linecap="round"/>

  <ellipse cx="59" cy="112" rx="6" ry="7.5" fill="#f2c4a0"/>
  <ellipse cx="141" cy="112" rx="6" ry="7.5" fill="#f2c4a0"/>

  <ellipse cx="83" cy="108" rx="10.5" ry="11.5" fill="white"/>
  <circle cx="83" cy="109" r="7.5" fill="#2a1608"/>
  <circle cx="83" cy="109" r="4.5" fill="#0a0200"/>
  <circle cx="86" cy="106" r="2.5" fill="white"/>
  <circle cx="81" cy="112" r="1.1" fill="white" opacity="0.6"/>
  <path d="M72.5 104 Q83 99 93.5 104" stroke="#0a0200" stroke-width="2" fill="none" stroke-linecap="round"/>
  <path d="M72.5 104 Q70 100 68 97" stroke="#0a0200" stroke-width="1.5" fill="none" stroke-linecap="round"/>
  <path d="M76 101 Q74.5 97 74 94" stroke="#0a0200" stroke-width="1.5" fill="none" stroke-linecap="round"/>
  <path d="M93.5 104 Q96 100 98 97" stroke="#0a0200" stroke-width="1.5" fill="none" stroke-linecap="round"/>

  <ellipse cx="117" cy="108" rx="10.5" ry="11.5" fill="white"/>
  <circle cx="117" cy="109" r="7.5" fill="#2a1608"/>
  <circle cx="117" cy="109" r="4.5" fill="#0a0200"/>
  <circle cx="120" cy="106" r="2.5" fill="white"/>
  <circle cx="115" cy="112" r="1.1" fill="white" opacity="0.6"/>
  <path d="M106.5 104 Q117 99 127.5 104" stroke="#0a0200" stroke-width="2" fill="none" stroke-linecap="round"/>
  <path d="M106.5 104 Q104 100 102 97" stroke="#0a0200" stroke-width="1.5" fill="none" stroke-linecap="round"/>
  <path d="M124 101 Q125.5 97 126 94" stroke="#0a0200" stroke-width="1.5" fill="none" stroke-linecap="round"/>
  <path d="M127.5 104 Q130 100 132 97" stroke="#0a0200" stroke-width="1.5" fill="none" stroke-linecap="round"/>

  <path d="M72 97 Q83 91 94 95" stroke="#1c0802" stroke-width="2.8" fill="none" stroke-linecap="round"/>
  <path d="M106 95 Q117 91 128 97" stroke="#1c0802" stroke-width="2.8" fill="none" stroke-linecap="round"/>

  <path d="M97 122 Q100 127 103 122" stroke="#d08860" stroke-width="1.6" fill="none" stroke-linecap="round"/>

  <path d="M88 135 Q94 131 100 132 Q106 131 112 135" fill="none" stroke="#c07060" stroke-width="1.4"/>
  <path d="M88 135 Q100 145 112 135 Q107 139 100 140 Q93 139 88 135 Z" fill="#e07868"/>
  <path d="M88 135 Q100 139 112 135" stroke="#cc6858" stroke-width="1" fill="none"/>

  <ellipse cx="71" cy="121" rx="10" ry="6" fill="#ffaaaa" opacity="0.32"/>
  <ellipse cx="129" cy="121" rx="10" ry="6" fill="#ffaaaa" opacity="0.32"/>

  <circle cx="57" cy="115" r="4.5" fill="#6ee7b7"/>
  <circle cx="57" cy="115" r="2" fill="#0d1220"/>
  <circle cx="57" cy="121" r="2.5" fill="#6ee7b7"/>
  <circle cx="143" cy="115" r="4.5" fill="#6ee7b7"/>
  <circle cx="143" cy="115" r="2" fill="#0d1220"/>
  <circle cx="143" cy="121" r="2.5" fill="#6ee7b7"/>

  <rect x="72" y="164" width="56" height="30" rx="5" fill="#0f172a"/>
  <rect x="74" y="166" width="52" height="24" rx="3.5" fill="#1e293b"/>
  <rect x="78" y="170" width="28" height="2.5" rx="1" fill="#6ee7b7" opacity="0.9"/>
  <rect x="82" y="175" width="18" height="2" rx="1" fill="#818cf8" opacity="0.8"/>
  <rect x="80" y="180" width="24" height="2" rx="1" fill="#fbbf24" opacity="0.65"/>
  <rect x="82" y="185" width="15" height="2" rx="1" fill="#f472b6" opacity="0.6"/>
  <rect x="66" y="193" width="68" height="7" rx="3.5" fill="#0f172a"/>
  <rect x="84" y="194.5" width="32" height="3" rx="1.5" fill="#1e293b"/>

</svg>
